<svg xmlns="http://www.w3.org/2000/svg" width="166.11" height="123.633" viewBox="0 0 166.11 123.633">
  <g id="camera-text" transform="translate(-130.83 -292.137)">
    <path id="Icon_awesome-camera" data-name="Icon awesome-camera" d="M71.843,17.966V58.377a6.737,6.737,0,0,1-6.735,6.735H6.735A6.737,6.737,0,0,1,0,58.377V17.966A6.737,6.737,0,0,1,6.735,11.23H19.083l1.726-4.616a6.726,6.726,0,0,1,6.3-4.364H44.72a6.726,6.726,0,0,1,6.3,4.364l1.74,4.616H65.108A6.737,6.737,0,0,1,71.843,17.966ZM52.76,38.172A16.838,16.838,0,1,0,35.922,55.01,16.852,16.852,0,0,0,52.76,38.172Zm-4.49,0A12.348,12.348,0,1,1,35.922,25.824,12.366,12.366,0,0,1,48.27,38.172Z" transform="translate(178 289.887)" fill="#333"/>
    <path id="Path_4" data-name="Path 4" d="M5.61-15.48h5.76v-4.65a1.342,1.342,0,0,1,.585-1.2,2.3,2.3,0,0,1,1.305-.39,2.3,2.3,0,0,1,1.305.39,1.342,1.342,0,0,1,.585,1.2v13.5A2.688,2.688,0,0,1,14.6-4.68a2.854,2.854,0,0,1-2,.54H4.38a2.854,2.854,0,0,1-2-.54A2.688,2.688,0,0,1,1.83-6.63v-13.5a1.342,1.342,0,0,1,.585-1.2,2.3,2.3,0,0,1,1.305-.39,2.3,2.3,0,0,1,1.305.39,1.342,1.342,0,0,1,.585,1.2Zm5.07,8.13a.61.61,0,0,0,.69-.69v-4.23H5.61v4.23a.61.61,0,0,0,.69.69Zm14.79-7.29a1.184,1.184,0,0,1,1.05.48,2.015,2.015,0,0,1,.33,1.17,2.087,2.087,0,0,1-.33,1.185,1.17,1.17,0,0,1-1.05.495H22.65V1.11a1.372,1.372,0,0,1-.585,1.23,2.48,2.48,0,0,1-2.67,0,1.372,1.372,0,0,1-.585-1.23V-21.87A1.372,1.372,0,0,1,19.4-23.1a2.351,2.351,0,0,1,1.335-.39,2.351,2.351,0,0,1,1.335.39,1.372,1.372,0,0,1,.585,1.23v7.23ZM47.7-21.93a2.854,2.854,0,0,1,2,.54,2.688,2.688,0,0,1,.555,1.95v4.02a2.688,2.688,0,0,1-.555,1.95,2.854,2.854,0,0,1-2,.54H36.06a.61.61,0,0,0-.69.69v1.29a.61.61,0,0,0,.69.69H49.5a1.152,1.152,0,0,1,1.02.48,1.962,1.962,0,0,1,.33,1.14,1.962,1.962,0,0,1-.33,1.14,1.152,1.152,0,0,1-1.02.48H34.14a2.854,2.854,0,0,1-1.995-.54,2.688,2.688,0,0,1-.555-1.95v-4.05a2.688,2.688,0,0,1,.555-1.95,2.854,2.854,0,0,1,1.995-.54H45.78a.61.61,0,0,0,.69-.69V-18a.61.61,0,0,0-.69-.69H32.88a1.152,1.152,0,0,1-1.02-.48,1.962,1.962,0,0,1-.33-1.14,1.962,1.962,0,0,1,.33-1.14,1.152,1.152,0,0,1,1.02-.48ZM29.61.27a1.152,1.152,0,0,1-1.02-.48,1.962,1.962,0,0,1-.33-1.14,1.962,1.962,0,0,1,.33-1.14,1.152,1.152,0,0,1,1.02-.48h9.42V-8.64h3.84v5.67h9.42a1.152,1.152,0,0,1,1.02.48,1.962,1.962,0,0,1,.33,1.14,1.962,1.962,0,0,1-.33,1.14,1.152,1.152,0,0,1-1.02.48ZM71.88-17.4a9.471,9.471,0,0,1,4.755,1A3.223,3.223,0,0,1,78.36-13.44a3.223,3.223,0,0,1-1.725,2.955,9.471,9.471,0,0,1-4.755,1,9.471,9.471,0,0,1-4.755-1A3.223,3.223,0,0,1,65.4-13.44,3.223,3.223,0,0,1,67.125-16.4,9.471,9.471,0,0,1,71.88-17.4Zm0,5.22q3.03,0,3.03-1.26T71.88-14.7q-3.03,0-3.03,1.26T71.88-12.18Zm-6.93-6.18a1.051,1.051,0,0,1-.93-.435,1.778,1.778,0,0,1-.3-1.035,1.848,1.848,0,0,1,.3-1.05,1.039,1.039,0,0,1,.93-.45h5.01V-22.5a1.323,1.323,0,0,1,.57-1.17,2.332,2.332,0,0,1,1.35-.39,2.351,2.351,0,0,1,1.335.39A1.312,1.312,0,0,1,73.8-22.5v1.17h4.71a1.039,1.039,0,0,1,.93.45,1.848,1.848,0,0,1,.3,1.05,1.778,1.778,0,0,1-.3,1.035,1.051,1.051,0,0,1-.93.435Zm20.31,2.82h2.43a1.184,1.184,0,0,1,1.05.48,2.015,2.015,0,0,1,.33,1.17,2.087,2.087,0,0,1-.33,1.185,1.17,1.17,0,0,1-1.05.495H85.26v6.12a1.354,1.354,0,0,1-.57,1.2,2.281,2.281,0,0,1-1.32.39,2.281,2.281,0,0,1-1.32-.39,1.354,1.354,0,0,1-.57-1.2V-21.9a1.354,1.354,0,0,1,.57-1.2,2.281,2.281,0,0,1,1.32-.39,2.281,2.281,0,0,1,1.32.39,1.354,1.354,0,0,1,.57,1.2ZM79.23-5.28q-2.94.24-6.855.375T64.26-4.77a1.108,1.108,0,0,1-.975-.45A1.835,1.835,0,0,1,62.97-6.3a1.717,1.717,0,0,1,.315-1.035,1.123,1.123,0,0,1,.975-.435h2.88q1.44,0,2.88-.03v-3.03h3.72v2.94q1.32-.06,2.625-.135t2.6-.195a1.125,1.125,0,0,1,1.02.33,1.763,1.763,0,0,1,.39.99,1.787,1.787,0,0,1-.21,1.08A1.1,1.1,0,0,1,79.23-5.28ZM81.51.33a.61.61,0,0,0-.69-.69H67.65a1.07,1.07,0,0,1-.96-.45,1.848,1.848,0,0,1-.3-1.05,1.921,1.921,0,0,1,.3-1.065,1.058,1.058,0,0,1,.96-.465H82.71a2.854,2.854,0,0,1,2,.54A2.688,2.688,0,0,1,85.26-.9V3.18a1.342,1.342,0,0,1-.585,1.2,2.3,2.3,0,0,1-1.305.39A2.252,2.252,0,0,1,82.1,4.38a1.342,1.342,0,0,1-.585-1.2ZM91.26-15a8.777,8.777,0,0,1,.45-2.85,6.079,6.079,0,0,1,1.35-2.265A6.271,6.271,0,0,1,95.31-21.6a8.447,8.447,0,0,1,3.15-.54,8.447,8.447,0,0,1,3.15.54,6.271,6.271,0,0,1,2.25,1.485,6.079,6.079,0,0,1,1.35,2.265,8.777,8.777,0,0,1,.45,2.85,8.777,8.777,0,0,1-.45,2.85,6.079,6.079,0,0,1-1.35,2.265A6.271,6.271,0,0,1,101.61-8.4a8.447,8.447,0,0,1-3.15.54,8.447,8.447,0,0,1-3.15-.54,6.271,6.271,0,0,1-2.25-1.485,6.079,6.079,0,0,1-1.35-2.265A8.777,8.777,0,0,1,91.26-15ZM102-15a5.831,5.831,0,0,0-.195-1.53,3.38,3.38,0,0,0-.615-1.245,3,3,0,0,0-1.1-.84,3.846,3.846,0,0,0-1.635-.315,3.845,3.845,0,0,0-1.635.315,3,3,0,0,0-1.1.84,3.38,3.38,0,0,0-.615,1.245,5.83,5.83,0,0,0-.2,1.53,5.83,5.83,0,0,0,.2,1.53,3.38,3.38,0,0,0,.615,1.245,3,3,0,0,0,1.1.84,3.845,3.845,0,0,0,1.635.315,3.846,3.846,0,0,0,1.635-.315,3,3,0,0,0,1.1-.84,3.38,3.38,0,0,0,.615-1.245A5.831,5.831,0,0,0,102-15ZM113.34-4.65a1.372,1.372,0,0,1-.585,1.23,2.351,2.351,0,0,1-1.335.39,2.351,2.351,0,0,1-1.335-.39,1.372,1.372,0,0,1-.585-1.23V-21.87a1.372,1.372,0,0,1,.585-1.23,2.351,2.351,0,0,1,1.335-.39,2.351,2.351,0,0,1,1.335.39,1.372,1.372,0,0,1,.585,1.23ZM97.83,4.11a2.854,2.854,0,0,1-2-.54,2.688,2.688,0,0,1-.555-1.95V-4.05a1.372,1.372,0,0,1,.585-1.23,2.4,2.4,0,0,1,1.365-.39,2.351,2.351,0,0,1,1.335.39,1.372,1.372,0,0,1,.585,1.23V.15a.61.61,0,0,0,.69.69h12.81a1.152,1.152,0,0,1,1.02.48A2.015,2.015,0,0,1,114,2.49a1.962,1.962,0,0,1-.33,1.14,1.152,1.152,0,0,1-1.02.48Zm28.02-19.23a8.372,8.372,0,0,1,2.775.435,6.013,6.013,0,0,1,2.1,1.215,5.258,5.258,0,0,1,1.32,1.9,6.418,6.418,0,0,1,.465,2.475,6.418,6.418,0,0,1-.465,2.475,5.258,5.258,0,0,1-1.32,1.905,6.013,6.013,0,0,1-2.1,1.215,8.372,8.372,0,0,1-2.775.435,8.372,8.372,0,0,1-2.775-.435,6.014,6.014,0,0,1-2.1-1.215,5.258,5.258,0,0,1-1.32-1.905,6.418,6.418,0,0,1-.465-2.475,6.418,6.418,0,0,1,.465-2.475,5.258,5.258,0,0,1,1.32-1.9,6.014,6.014,0,0,1,2.1-1.215A8.372,8.372,0,0,1,125.85-15.12Zm-1.92-4.74v-2.07a1.372,1.372,0,0,1,.585-1.23,2.351,2.351,0,0,1,1.335-.39,2.351,2.351,0,0,1,1.335.39,1.372,1.372,0,0,1,.585,1.23v2.07h4.71a1.152,1.152,0,0,1,1.02.48,1.962,1.962,0,0,1,.33,1.14,1.962,1.962,0,0,1-.33,1.14,1.152,1.152,0,0,1-1.02.48H118.86a1.152,1.152,0,0,1-1.02-.48,1.962,1.962,0,0,1-.33-1.14,1.962,1.962,0,0,1,.33-1.14,1.152,1.152,0,0,1,1.02-.48Zm1.92,13.74a3.291,3.291,0,0,0,2.31-.8,2.8,2.8,0,0,0,.87-2.175,2.8,2.8,0,0,0-.87-2.175,3.291,3.291,0,0,0-2.31-.8,3.291,3.291,0,0,0-2.31.8,2.8,2.8,0,0,0-.87,2.175,2.8,2.8,0,0,0,.87,2.175A3.291,3.291,0,0,0,125.85-6.12Zm13.5-8.22h2.82a1.184,1.184,0,0,1,1.05.48,2.015,2.015,0,0,1,.33,1.17,2.087,2.087,0,0,1-.33,1.185,1.17,1.17,0,0,1-1.05.495h-2.82V1.11a1.372,1.372,0,0,1-.585,1.23,2.3,2.3,0,0,1-1.305.39,2.351,2.351,0,0,1-1.335-.39,1.372,1.372,0,0,1-.585-1.23V-21.87a1.372,1.372,0,0,1,.585-1.23,2.351,2.351,0,0,1,1.335-.39,2.3,2.3,0,0,1,1.305.39,1.372,1.372,0,0,1,.585,1.23Zm8.4-3.84a1.152,1.152,0,0,1-1.02-.48,1.962,1.962,0,0,1-.33-1.14,2.015,2.015,0,0,1,.33-1.17,1.152,1.152,0,0,1,1.02-.48h9.03a2.854,2.854,0,0,1,1.995.54,2.688,2.688,0,0,1,.555,1.95v3.33a15.76,15.76,0,0,1-.15,2.28,7.426,7.426,0,0,1-.555,1.935A7.692,7.692,0,0,1,157.5-9.63a13.889,13.889,0,0,1-1.89,1.83q-1.17.96-2.835,2.07T148.83-3.24a1.413,1.413,0,0,1-1.305.135A2.088,2.088,0,0,1,146.49-3.9a2.218,2.218,0,0,1-.36-1.26,1.292,1.292,0,0,1,.66-1.14q2.04-1.23,3.5-2.175t2.43-1.695a10.968,10.968,0,0,0,1.53-1.38,5.007,5.007,0,0,0,.84-1.275,4.484,4.484,0,0,0,.36-1.335,14.885,14.885,0,0,0,.075-1.59v-1.74a.61.61,0,0,0-.69-.69ZM167.94,1.11a1.372,1.372,0,0,1-.585,1.23,2.4,2.4,0,0,1-1.365.39,2.351,2.351,0,0,1-1.335-.39,1.372,1.372,0,0,1-.585-1.23V-21.87a1.372,1.372,0,0,1,.585-1.23,2.351,2.351,0,0,1,1.335-.39,2.4,2.4,0,0,1,1.365.39,1.372,1.372,0,0,1,.585,1.23Z" transform="translate(129 411)" fill="#333"/>
  </g>
</svg>
