<svg xmlns="http://www.w3.org/2000/svg" width="124.222" height="43.658" viewBox="0 0 124.222 43.658">
  <defs>
    <style>
      .cls-1 {
        fill: #fff;
      }
    </style>
  </defs>
  <g id="logo-pio" transform="translate(-15.784 -17.038)">
    <path id="Path_2" data-name="Path 2" class="cls-1" d="M8.472-17.16a8.506,8.506,0,0,1,2.676.372,5.027,5.027,0,0,1,1.836,1.032,4.075,4.075,0,0,1,1.068,1.572,5.474,5.474,0,0,1,.348,1.968v.336a5.6,5.6,0,0,1-.36,2,4.432,4.432,0,0,1-1.1,1.656,5.455,5.455,0,0,1-1.848,1.128,7.353,7.353,0,0,1-2.616.42H5.016v5.4A1.133,1.133,0,0,1,4.56-.264,1.866,1.866,0,0,1,3.48.048,1.866,1.866,0,0,1,2.4-.264a1.133,1.133,0,0,1-.456-1.008v-13.9a2.151,2.151,0,0,1,.444-1.56,2.283,2.283,0,0,1,1.6-.432Zm-3.456,7.9H8.064A4.243,4.243,0,0,0,10.44-9.84a2.326,2.326,0,0,0,.864-2.088v-.264a2.758,2.758,0,0,0-.216-1.176,1.827,1.827,0,0,0-.612-.732,2.464,2.464,0,0,0-.948-.384,6.255,6.255,0,0,0-1.2-.108H5.016ZM18.744-17.3a1.866,1.866,0,0,1,1.08.312,1.133,1.133,0,0,1,.456,1.008V-1.272a1.133,1.133,0,0,1-.456,1.008,1.866,1.866,0,0,1-1.08.312,1.866,1.866,0,0,1-1.08-.312,1.133,1.133,0,0,1-.456-1.008V-15.984a1.133,1.133,0,0,1,.456-1.008A1.866,1.866,0,0,1,18.744-17.3Zm12.12-.12a9.4,9.4,0,0,1,3.12.48,5.632,5.632,0,0,1,2.3,1.488,6.64,6.64,0,0,1,1.428,2.58,12.654,12.654,0,0,1,.492,3.756v.984a12.654,12.654,0,0,1-.492,3.756A6.64,6.64,0,0,1,36.288-1.8a5.632,5.632,0,0,1-2.3,1.488,9.4,9.4,0,0,1-3.12.48,9.4,9.4,0,0,1-3.12-.48A5.632,5.632,0,0,1,25.44-1.8a6.64,6.64,0,0,1-1.428-2.58,12.653,12.653,0,0,1-.492-3.756V-9.12a12.653,12.653,0,0,1,.492-3.756,6.64,6.64,0,0,1,1.428-2.58,5.632,5.632,0,0,1,2.3-1.488A9.4,9.4,0,0,1,30.864-17.424Zm0,2.808a5.4,5.4,0,0,0-1.848.288,3.031,3.031,0,0,0-1.332.948,4.348,4.348,0,0,0-.8,1.764,11.99,11.99,0,0,0-.264,2.736v.5A11.99,11.99,0,0,0,26.88-5.64a4.348,4.348,0,0,0,.8,1.764,3.031,3.031,0,0,0,1.332.948,5.4,5.4,0,0,0,1.848.288,5.4,5.4,0,0,0,1.848-.288,3.031,3.031,0,0,0,1.332-.948,4.348,4.348,0,0,0,.8-1.764,11.991,11.991,0,0,0,.264-2.736v-.5a11.991,11.991,0,0,0-.264-2.736,4.348,4.348,0,0,0-.8-1.764,3.031,3.031,0,0,0-1.332-.948A5.4,5.4,0,0,0,30.864-14.616Zm13.488,3.048a3.845,3.845,0,0,0,1.1-1.452,4.659,4.659,0,0,0,.336-1.812v-1.9a1.123,1.123,0,0,1,.468-1.008,1.922,1.922,0,0,1,1.092-.312,1.922,1.922,0,0,1,1.092.312,1.123,1.123,0,0,1,.468,1.008v1.8a4.659,4.659,0,0,0,.336,1.812,3.845,3.845,0,0,0,1.1,1.452q.792.648,1.488,1.164l1.248.924a1.122,1.122,0,0,1,.528.876,1.487,1.487,0,0,1-.312.972,1.792,1.792,0,0,1-.348.348,1.378,1.378,0,0,1-.444.228A1.369,1.369,0,0,1,52-7.1a1.21,1.21,0,0,1-.564-.216q-.456-.312-1.068-.78T49.032-9.144a9.55,9.55,0,0,1-1.2-1.092,2.051,2.051,0,0,1-.432-.732h-.024a2.117,2.117,0,0,1-.468.852,9.311,9.311,0,0,1-1.236,1.14q-1.392,1.1-2.784,2.088a1.061,1.061,0,0,1-1.056.18,1.589,1.589,0,0,1-.792-.612,1.638,1.638,0,0,1-.312-.984,1.119,1.119,0,0,1,.552-.936q.816-.576,1.548-1.128T44.352-11.568Zm14.3,4.128a1.1,1.1,0,0,1-.468.984,1.881,1.881,0,0,1-1.068.312,1.881,1.881,0,0,1-1.068-.312,1.1,1.1,0,0,1-.468-.984V-17.5a1.1,1.1,0,0,1,.468-.984,1.881,1.881,0,0,1,1.068-.312,1.881,1.881,0,0,1,1.068.312,1.1,1.1,0,0,1,.468.984ZM46.248,3.456a2.283,2.283,0,0,1-1.6-.432,2.151,2.151,0,0,1-.444-1.56V-3.264a2.151,2.151,0,0,1,.444-1.56,2.283,2.283,0,0,1,1.6-.432H56.616a2.283,2.283,0,0,1,1.6.432,2.151,2.151,0,0,1,.444,1.56V1.464a2.151,2.151,0,0,1-.444,1.56,2.283,2.283,0,0,1-1.6.432ZM55.056.912A.488.488,0,0,0,55.608.36V-2.16a.488.488,0,0,0-.552-.552H47.808a.488.488,0,0,0-.552.552V.36a.488.488,0,0,0,.552.552Zm12.216-16.68H65.256a.829.829,0,0,1-.732-.372,1.483,1.483,0,0,1-.252-.852,1.428,1.428,0,0,1,.252-.84.838.838,0,0,1,.732-.36H79.272a.838.838,0,0,1,.732.36,1.428,1.428,0,0,1,.252.84A1.483,1.483,0,0,1,80-16.14a.829.829,0,0,1-.732.372H77.256v2.856h2.112a.838.838,0,0,1,.732.36,1.428,1.428,0,0,1,.252.84,1.483,1.483,0,0,1-.252.852.829.829,0,0,1-.732.372H65.16a.829.829,0,0,1-.732-.372,1.483,1.483,0,0,1-.252-.852,1.428,1.428,0,0,1,.252-.84.838.838,0,0,1,.732-.36h2.112ZM70.2-12.912h4.128v-2.856H70.2ZM63.168-6.7a.913.913,0,0,1-.8-.36,1.553,1.553,0,0,1-.252-.912,1.468,1.468,0,0,1,.252-.864.913.913,0,0,1,.8-.36H81.36a.913.913,0,0,1,.8.36,1.468,1.468,0,0,1,.252.864,1.553,1.553,0,0,1-.252.912.913.913,0,0,1-.8.36ZM77.76-5.352a2.283,2.283,0,0,1,1.6.432A2.151,2.151,0,0,1,79.8-3.36V-1.7a2.151,2.151,0,0,1-.444,1.56,2.283,2.283,0,0,1-1.6.432H67.992a.318.318,0,0,0-.36.36v.36a.318.318,0,0,0,.36.36H79.3a.831.831,0,0,1,.744.36,1.4,1.4,0,0,1,.24.792,1.422,1.422,0,0,1-.24.828A.841.841,0,0,1,79.3,3.7H66.72a2.283,2.283,0,0,1-1.6-.432A2.151,2.151,0,0,1,64.68,1.7V.048a2.151,2.151,0,0,1,.444-1.56,2.283,2.283,0,0,1,1.6-.432h9.768a.318.318,0,0,0,.36-.36v-.36a.318.318,0,0,0-.36-.36H65.616a.841.841,0,0,1-.744-.348,1.422,1.422,0,0,1-.24-.828,1.4,1.4,0,0,1,.24-.792.831.831,0,0,1,.744-.36ZM93.72-15.7a.922.922,0,0,1,.816.384,1.57,1.57,0,0,1,.264.912,1.57,1.57,0,0,1-.264.912.922.922,0,0,1-.816.384H91.08v1.344q0,.7.048,1.224a4.453,4.453,0,0,0,.192.972,3.99,3.99,0,0,0,.384.84,6.891,6.891,0,0,0,.624.852q.6.7,1.176,1.3t.936.936a1.087,1.087,0,0,1,.372.948,1.506,1.506,0,0,1-.444.924,1.285,1.285,0,0,1-.9.432A1.339,1.339,0,0,1,92.5-3.72q-.384-.36-.768-.768t-.84-.888q-.384-.408-.612-.7a3.891,3.891,0,0,1-.36-.528,3.9,3.9,0,0,1-.2-.42,1.5,1.5,0,0,1-.1-.372h-.024a2.67,2.67,0,0,1-.336.864,8.375,8.375,0,0,1-1.008,1.272q-.48.528-.984,1.044t-1.008,1a1.175,1.175,0,0,1-.972.36,1.379,1.379,0,0,1-.924-.432A1.6,1.6,0,0,1,83.9-4.26a1.145,1.145,0,0,1,.36-.948q.7-.672,1.32-1.32t1.224-1.344a6.89,6.89,0,0,0,.624-.852,3.99,3.99,0,0,0,.384-.84,4.453,4.453,0,0,0,.192-.972q.048-.528.048-1.224V-13.1H85.128a.922.922,0,0,1-.816-.384,1.57,1.57,0,0,1-.264-.912,1.57,1.57,0,0,1,.264-.912.922.922,0,0,1,.816-.384h2.928v-1.728a1.073,1.073,0,0,1,.468-.96,1.841,1.841,0,0,1,1.044-.312,1.841,1.841,0,0,1,1.044.312,1.073,1.073,0,0,1,.468.96V-15.7Zm2.112,7.08h-1.68A.922.922,0,0,1,93.336-9a1.57,1.57,0,0,1-.264-.912,1.612,1.612,0,0,1,.264-.936.922.922,0,0,1,.816-.384h1.68v-6.12a1.017,1.017,0,0,1,.432-.912,1.733,1.733,0,0,1,.984-.288,1.693,1.693,0,0,1,.96.288,1.017,1.017,0,0,1,.432.912V-.024a1.017,1.017,0,0,1-.432.912,1.693,1.693,0,0,1-.96.288,1.733,1.733,0,0,1-.984-.288,1.017,1.017,0,0,1-.432-.912Zm4.368-8.976a1.017,1.017,0,0,1,.432-.912,1.733,1.733,0,0,1,.984-.288,1.733,1.733,0,0,1,.984.288,1.017,1.017,0,0,1,.432.912V.984a1.017,1.017,0,0,1-.432.912,1.825,1.825,0,0,1-1.968,0A1.017,1.017,0,0,1,100.2.984Zm7.92,3a.922.922,0,0,1-.816-.384,1.57,1.57,0,0,1-.264-.912,1.57,1.57,0,0,1,.264-.912.922.922,0,0,1,.816-.384h7.032a2.283,2.283,0,0,1,1.6.432,2.151,2.151,0,0,1,.444,1.56v2.952a14.973,14.973,0,0,1-.12,1.992,6.006,6.006,0,0,1-.456,1.644,6.049,6.049,0,0,1-.912,1.44,10.405,10.405,0,0,1-1.5,1.416,26.138,26.138,0,0,1-2.232,1.56q-1.308.828-3.084,1.86a1.241,1.241,0,0,1-1.032.12,1.429,1.429,0,0,1-.816-.648,1.686,1.686,0,0,1-.252-1.032,1.056,1.056,0,0,1,.588-.888q1.656-.936,2.808-1.632t1.908-1.248a8.161,8.161,0,0,0,1.176-1.008A3.53,3.53,0,0,0,113.9-9.6l-6.288.408a.863.863,0,0,1-.828-.324,1.775,1.775,0,0,1-.324-.924,1.525,1.525,0,0,1,.192-.912.883.883,0,0,1,.792-.456l6.768-.264V-14.04a.488.488,0,0,0-.552-.552Zm13.152,5.616h-5.3v-2.592h5.3V-17.5a1.1,1.1,0,0,1,.468-.984,1.881,1.881,0,0,1,1.068-.312,1.841,1.841,0,0,1,1.044.312,1.1,1.1,0,0,1,.468.984V.888a1.1,1.1,0,0,1-.468.984,1.841,1.841,0,0,1-1.044.312,1.881,1.881,0,0,1-1.068-.312,1.1,1.1,0,0,1-.468-.984Z" transform="translate(15 57)"/>
    <path id="Path_1" data-name="Path 1" class="cls-1" d="M1.974-2.072a1.332,1.332,0,0,1-.931-.252,1.255,1.255,0,0,1-.259-.91V-9.3a.64.64,0,0,1,.273-.574,1.1,1.1,0,0,1,.623-.182,1.121,1.121,0,0,1,.637.182A.64.64,0,0,1,2.59-9.3V-3.92a.285.285,0,0,0,.322.322q.294,0,.658-.014t.742-.035q.378-.021.756-.056t.714-.077a.559.559,0,0,1,.5.147.812.812,0,0,1,.21.511,1.078,1.078,0,0,1-.084.56.534.534,0,0,1-.42.294q-.448.07-1.456.133T1.974-2.072ZM8.722-6.748h1.2v-3.514a.593.593,0,0,1,.252-.532,1.011,1.011,0,0,1,.574-.168,1.011,1.011,0,0,1,.574.168.593.593,0,0,1,.252.532V.574a.593.593,0,0,1-.252.532,1.065,1.065,0,0,1-1.148,0A.593.593,0,0,1,9.926.574v-5.81h-1.2V-.014A.593.593,0,0,1,8.47.518,1.011,1.011,0,0,1,7.9.686a.988.988,0,0,1-.56-.168.593.593,0,0,1-.252-.532V-10.122a.593.593,0,0,1,.252-.532.988.988,0,0,1,.56-.168,1.011,1.011,0,0,1,.574.168.593.593,0,0,1,.252.532Zm10.7.826a1.332,1.332,0,0,1-.931-.252,1.255,1.255,0,0,1-.259-.91V-9.366a1.255,1.255,0,0,1,.259-.91,1.332,1.332,0,0,1,.931-.252H25.8a1.332,1.332,0,0,1,.931.252,1.255,1.255,0,0,1,.259.91v2.282a1.255,1.255,0,0,1-.259.91,1.332,1.332,0,0,1-.931.252Zm5.474-1.456a.285.285,0,0,0,.322-.322V-8.75a.285.285,0,0,0-.322-.322H20.328a.285.285,0,0,0-.322.322V-7.7a.285.285,0,0,0,.322.322ZM17.3-3.346a.526.526,0,0,1-.469-.217.914.914,0,0,1-.147-.525.914.914,0,0,1,.147-.525A.526.526,0,0,1,17.3-4.83h4.424V-6.706h1.764V-4.83h4.424a.526.526,0,0,1,.469.217.914.914,0,0,1,.147.525.914.914,0,0,1-.147.525.526.526,0,0,1-.469.217ZM19.39,2.072a1.332,1.332,0,0,1-.931-.252A1.255,1.255,0,0,1,18.2.91V-1.372a1.255,1.255,0,0,1,.259-.91,1.332,1.332,0,0,1,.931-.252h6.44a1.332,1.332,0,0,1,.931.252,1.255,1.255,0,0,1,.259.91V.91a1.255,1.255,0,0,1-.259.91,1.332,1.332,0,0,1-.931.252ZM24.92.616a.285.285,0,0,0,.322-.322V-.756a.285.285,0,0,0-.322-.322H20.3a.285.285,0,0,0-.322.322V.294A.285.285,0,0,0,20.3.616Zm6.048-9.128a1.829,1.829,0,0,1,.3-1.057,2.2,2.2,0,0,1,.868-.721,4.913,4.913,0,0,1,1.379-.413,12.711,12.711,0,0,1,3.668,0,4.913,4.913,0,0,1,1.379.413,2.2,2.2,0,0,1,.868.721,1.829,1.829,0,0,1,.3,1.057,1.829,1.829,0,0,1-.3,1.057,2.2,2.2,0,0,1-.868.721,4.913,4.913,0,0,1-1.379.413,11.42,11.42,0,0,1-1.834.133,11.42,11.42,0,0,1-1.834-.133,4.913,4.913,0,0,1-1.379-.413,2.2,2.2,0,0,1-.868-.721A1.829,1.829,0,0,1,30.968-8.512Zm6.986,0q0-.434-.6-.679a5.812,5.812,0,0,0-2-.245,5.812,5.812,0,0,0-2,.245q-.6.245-.6.679t.6.679a5.812,5.812,0,0,0,2,.245,5.812,5.812,0,0,0,2-.245Q37.954-8.078,37.954-8.512Zm-7.91,4.438a.532.532,0,0,1-.469-.21.906.906,0,0,1-.147-.532.857.857,0,0,1,.147-.5.532.532,0,0,1,.469-.21H40.656a.532.532,0,0,1,.469.21.857.857,0,0,1,.147.5.906.906,0,0,1-.147.532.532.532,0,0,1-.469.21Zm8.512.84a1.332,1.332,0,0,1,.931.252,1.255,1.255,0,0,1,.259.91V-1.05a1.255,1.255,0,0,1-.259.91,1.332,1.332,0,0,1-.931.252H32.872a.186.186,0,0,0-.21.21V.574a.186.186,0,0,0,.21.21h6.58a.485.485,0,0,1,.434.21.839.839,0,0,1,.14.476.83.83,0,0,1-.14.483.491.491,0,0,1-.434.2H32.116a1.332,1.332,0,0,1-.931-.252,1.255,1.255,0,0,1-.259-.91V-.042a1.255,1.255,0,0,1,.259-.91,1.332,1.332,0,0,1,.931-.252H37.8a.186.186,0,0,0,.21-.21v-.238a.186.186,0,0,0-.21-.21H31.472a.491.491,0,0,1-.434-.2.83.83,0,0,1-.14-.483.839.839,0,0,1,.14-.476.485.485,0,0,1,.434-.21Zm9.282-3.99h2.688v-2.17a.626.626,0,0,1,.273-.56,1.074,1.074,0,0,1,.609-.182,1.074,1.074,0,0,1,.609.182.626.626,0,0,1,.273.56v6.3a1.255,1.255,0,0,1-.259.91,1.332,1.332,0,0,1-.931.252H47.264a1.332,1.332,0,0,1-.931-.252,1.255,1.255,0,0,1-.259-.91v-6.3a.626.626,0,0,1,.273-.56,1.074,1.074,0,0,1,.609-.182,1.074,1.074,0,0,1,.609.182.626.626,0,0,1,.273.56ZM50.2-3.43a.285.285,0,0,0,.322-.322V-5.726H47.838v1.974a.285.285,0,0,0,.322.322Zm6.9-3.4a.552.552,0,0,1,.49.224.94.94,0,0,1,.154.546.974.974,0,0,1-.154.553.546.546,0,0,1-.49.231H55.79v5.8a.64.64,0,0,1-.273.574,1.157,1.157,0,0,1-1.246,0A.64.64,0,0,1,54,.518V-10.206a.64.64,0,0,1,.273-.574,1.1,1.1,0,0,1,.623-.182,1.1,1.1,0,0,1,.623.182.64.64,0,0,1,.273.574v3.374Zm10.374-3.4a1.332,1.332,0,0,1,.931.252,1.255,1.255,0,0,1,.259.91V-7.2a1.255,1.255,0,0,1-.259.91,1.332,1.332,0,0,1-.931.252H62.048a.285.285,0,0,0-.322.322v.6a.285.285,0,0,0,.322.322H68.32a.538.538,0,0,1,.476.224.916.916,0,0,1,.154.532A.916.916,0,0,1,68.8-3.5a.538.538,0,0,1-.476.224H61.152a1.332,1.332,0,0,1-.931-.252,1.255,1.255,0,0,1-.259-.91v-1.89a1.255,1.255,0,0,1,.259-.91,1.332,1.332,0,0,1,.931-.252h5.432a.285.285,0,0,0,.322-.322V-8.4a.285.285,0,0,0-.322-.322h-6.02a.538.538,0,0,1-.476-.224.916.916,0,0,1-.154-.532.916.916,0,0,1,.154-.532.538.538,0,0,1,.476-.224ZM59.038.126A.538.538,0,0,1,58.562-.1a.916.916,0,0,1-.154-.532.916.916,0,0,1,.154-.532.538.538,0,0,1,.476-.224h4.4V-4.032h1.792v2.646h4.4a.538.538,0,0,1,.476.224.916.916,0,0,1,.154.532A.916.916,0,0,1,70.1-.1a.538.538,0,0,1-.476.224Zm16.87-8.89v.308A2.413,2.413,0,0,0,76.1-7.427a2.271,2.271,0,0,0,.665.777q.476.378.868.665t.686.5a.655.655,0,0,1,.3.511.844.844,0,0,1-.161.567.931.931,0,0,1-.469.343.668.668,0,0,1-.623-.119l-.6-.434q-.385-.28-.777-.574a5.35,5.35,0,0,1-.434-.35,2.975,2.975,0,0,1-.273-.28,1.611,1.611,0,0,1-.161-.224.886.886,0,0,1-.084-.2h-.014a1.332,1.332,0,0,1-.259.483,4.28,4.28,0,0,1-.735.665q-.392.294-.812.6t-.8.574a.636.636,0,0,1-.623.105.962.962,0,0,1-.455-.343.956.956,0,0,1-.182-.574.653.653,0,0,1,.322-.546q.462-.322.882-.63t.9-.686a2.271,2.271,0,0,0,.665-.777A2.413,2.413,0,0,0,74.116-8.4v-.364H72.03a.538.538,0,0,1-.476-.224A.916.916,0,0,1,71.4-9.52a.916.916,0,0,1,.154-.532.538.538,0,0,1,.476-.224h5.824a.538.538,0,0,1,.476.224.916.916,0,0,1,.154.532.916.916,0,0,1-.154.532.538.538,0,0,1-.476.224Zm6.678.63a.552.552,0,0,1,.49.224.94.94,0,0,1,.154.546.974.974,0,0,1-.154.553.546.546,0,0,1-.49.231H81.27V-4.7A.64.64,0,0,1,81-4.13a1.1,1.1,0,0,1-.623.182,1.1,1.1,0,0,1-.623-.182.64.64,0,0,1-.273-.574v-5.5a.64.64,0,0,1,.273-.574,1.1,1.1,0,0,1,.623-.182A1.1,1.1,0,0,1,81-10.78a.64.64,0,0,1,.273.574v2.072ZM81.27.854a1.255,1.255,0,0,1-.259.91,1.332,1.332,0,0,1-.931.252H74.172a1.332,1.332,0,0,1-.931-.252,1.255,1.255,0,0,1-.259-.91V-2.7a.612.612,0,0,1,.273-.546,1.051,1.051,0,0,1,.6-.182,1.074,1.074,0,0,1,.609.182.612.612,0,0,1,.273.546v.924H79.52V-2.7a.612.612,0,0,1,.273-.546,1.051,1.051,0,0,1,.6-.182A1.074,1.074,0,0,1,81-3.248a.612.612,0,0,1,.273.546ZM79.2.574A.285.285,0,0,0,79.52.252V-.364H74.732V.252a.285.285,0,0,0,.322.322ZM93.786-7.21a.538.538,0,0,1,.476.224.916.916,0,0,1,.154.532.916.916,0,0,1-.154.532.538.538,0,0,1-.476.224H86.618a1.332,1.332,0,0,1-.931-.252,1.255,1.255,0,0,1-.259-.91V-9.884a.64.64,0,0,1,.273-.574,1.121,1.121,0,0,1,.637-.182,1.1,1.1,0,0,1,.623.182.64.64,0,0,1,.273.574v2.352a.285.285,0,0,0,.322.322ZM84.518-2.982a.538.538,0,0,1-.476-.224.916.916,0,0,1-.154-.532.916.916,0,0,1,.154-.532.538.538,0,0,1,.476-.224H95.1a.538.538,0,0,1,.476.224.916.916,0,0,1,.154.532.916.916,0,0,1-.154.532.538.538,0,0,1-.476.224Zm9.3,3.444a.538.538,0,0,1,.476.224.916.916,0,0,1,.154.532.916.916,0,0,1-.154.532.538.538,0,0,1-.476.224H86.59a1.332,1.332,0,0,1-.931-.252A1.255,1.255,0,0,1,85.4.812v-2.17a.64.64,0,0,1,.273-.574,1.121,1.121,0,0,1,.637-.182,1.1,1.1,0,0,1,.623.182.64.64,0,0,1,.273.574V.14a.285.285,0,0,0,.322.322ZM106.96-9.7a1.226,1.226,0,0,0,.35.917,3.413,3.413,0,0,0,1.022.637q.63.28,1.169.5t1.141.441a.5.5,0,0,1,.315.4.987.987,0,0,1-.049.581.779.779,0,0,1-.154.245.907.907,0,0,1-.224.175.691.691,0,0,1-.273.084.607.607,0,0,1-.287-.042q-.462-.168-1.022-.392t-1.05-.434a6.566,6.566,0,0,1-1.386-.728,1.126,1.126,0,0,1-.448-.56h-.014a1.176,1.176,0,0,1-.462.6,6.566,6.566,0,0,1-1.386.728q-.49.21-1.015.42t-1.015.392a.676.676,0,0,1-.6-.028.858.858,0,0,1-.378-.434,1.053,1.053,0,0,1-.063-.581.512.512,0,0,1,.329-.427q.6-.224,1.141-.441t1.169-.5a3.413,3.413,0,0,0,1.022-.637,1.226,1.226,0,0,0,.35-.917v-.308a.655.655,0,0,1,.273-.588,1.121,1.121,0,0,1,.637-.182,1.121,1.121,0,0,1,.637.182.655.655,0,0,1,.273.588Zm-6.216,6.174a.526.526,0,0,1-.469-.217.939.939,0,0,1-.147-.539.914.914,0,0,1,.147-.525.526.526,0,0,1,.469-.217h10.612a.526.526,0,0,1,.469.217.914.914,0,0,1,.147.525.939.939,0,0,1-.147.539.526.526,0,0,1-.469.217ZM110.46.91a1.255,1.255,0,0,1-.259.91,1.332,1.332,0,0,1-.931.252h-6.44a1.332,1.332,0,0,1-.931-.252,1.255,1.255,0,0,1-.259-.91V-2.17a.612.612,0,0,1,.273-.546,1.051,1.051,0,0,1,.6-.182,1.074,1.074,0,0,1,.609.182.612.612,0,0,1,.273.546v.6h5.32v-.6a.612.612,0,0,1,.273-.546,1.051,1.051,0,0,1,.6-.182,1.074,1.074,0,0,1,.609.182.612.612,0,0,1,.273.546ZM108.5.658a.186.186,0,0,0,.21-.21v-.63h-5.32v.63a.186.186,0,0,0,.21.21Zm5.712-9.394a.538.538,0,0,1-.476-.224.94.94,0,0,1-.154-.546.94.94,0,0,1,.154-.546.538.538,0,0,1,.476-.224h4.774a1.332,1.332,0,0,1,.931.252,1.255,1.255,0,0,1,.259.91v1.12a8.69,8.69,0,0,1-.056,1,5.9,5.9,0,0,1-.168.889.745.745,0,0,1-.42.5,1.056,1.056,0,0,1-.672.049.886.886,0,0,1-.525-.3.683.683,0,0,1-.105-.609,7.6,7.6,0,0,0,.168-1.568v-.378a.285.285,0,0,0-.322-.322Zm9.016,1.568h1.134a.552.552,0,0,1,.49.224.94.94,0,0,1,.154.546.974.974,0,0,1-.154.553.546.546,0,0,1-.49.231h-1.134v3.738a.632.632,0,0,1-.266.56,1.064,1.064,0,0,1-.616.182,1.064,1.064,0,0,1-.616-.182.632.632,0,0,1-.266-.56V-10.22a.632.632,0,0,1,.266-.56,1.064,1.064,0,0,1,.616-.182,1.064,1.064,0,0,1,.616.182.632.632,0,0,1,.266.56Zm-2.856,3.906q-.672.056-1.484.1t-1.7.077q-.889.035-1.834.049t-1.9.014a.538.538,0,0,1-.476-.224.916.916,0,0,1-.154-.532.916.916,0,0,1,.154-.532.538.538,0,0,1,.476-.224q.406,0,.826.007t.84-.007V-6.51a.64.64,0,0,1,.273-.574A1.074,1.074,0,0,1,116-7.266a1.074,1.074,0,0,1,.609.182.64.64,0,0,1,.273.574v1.946q.854-.028,1.687-.07t1.673-.112a.525.525,0,0,1,.483.168.921.921,0,0,1,.189.518.923.923,0,0,1-.1.525A.514.514,0,0,1,120.372-3.262Zm2.534,3.7a.538.538,0,0,1,.476.224.916.916,0,0,1,.154.532.916.916,0,0,1-.154.532.538.538,0,0,1-.476.224h-7.07a1.332,1.332,0,0,1-.931-.252,1.255,1.255,0,0,1-.259-.91V-1.358a.64.64,0,0,1,.273-.574,1.121,1.121,0,0,1,.637-.182,1.1,1.1,0,0,1,.623.182.64.64,0,0,1,.273.574V.112a.285.285,0,0,0,.322.322Z" transform="translate(15 28)"/>
  </g>
</svg>
