<svg xmlns="http://www.w3.org/2000/svg" width="241.24" height="36.004" viewBox="0 0 241.24 36.004">
  <g id="search-text" transform="translate(-92 -122.998)">
    <path id="Path_3" data-name="Path 3" d="M11.13-16.29a10.478,10.478,0,0,0,.12,1.65,6.955,6.955,0,0,0,.39,1.44,6.847,6.847,0,0,0,.7,1.335A11.716,11.716,0,0,0,13.41-10.53q.81.87,1.635,1.71T16.56-7.38a1.263,1.263,0,0,1,.45,1.215,2.237,2.237,0,0,1-.57,1.185,1.942,1.942,0,0,1-.51.36,2,2,0,0,1-.615.2,1.5,1.5,0,0,1-.63-.045A1.5,1.5,0,0,1,14.1-4.8q-.6-.54-1.305-1.245T11.37-7.53A18.073,18.073,0,0,1,9.735-9.42,3.091,3.091,0,0,1,9.21-10.5H9.18A2.852,2.852,0,0,1,9-9.96a3.812,3.812,0,0,1-.375.63q-.255.36-.645.81T6.99-7.44q-.72.78-1.485,1.53T3.84-4.32A1.293,1.293,0,0,1,2.565-4,2.357,2.357,0,0,1,1.44-4.65a1.885,1.885,0,0,1-.48-1.2,1.5,1.5,0,0,1,.51-1.2q1.86-1.71,3.48-3.48a11.716,11.716,0,0,0,1.065-1.335A6.847,6.847,0,0,0,6.72-13.2a6.955,6.955,0,0,0,.39-1.44,10.478,10.478,0,0,0,.12-1.65v-4.14a1.4,1.4,0,0,1,.585-1.26,2.4,2.4,0,0,1,1.365-.39,2.4,2.4,0,0,1,1.365.39,1.4,1.4,0,0,1,.585,1.26Zm14.34,1.65a1.184,1.184,0,0,1,1.05.48,2.015,2.015,0,0,1,.33,1.17,2.087,2.087,0,0,1-.33,1.185,1.17,1.17,0,0,1-1.05.495H22.65V1.11a1.372,1.372,0,0,1-.585,1.23,2.48,2.48,0,0,1-2.67,0,1.372,1.372,0,0,1-.585-1.23V-21.87A1.372,1.372,0,0,1,19.4-23.1a2.351,2.351,0,0,1,1.335-.39,2.351,2.351,0,0,1,1.335.39,1.372,1.372,0,0,1,.585,1.23v7.23Zm15.48,2.22a23.273,23.273,0,0,1-3.93-.3,9.873,9.873,0,0,1-2.955-.945A4.9,4.9,0,0,1,32.2-15.3a4.245,4.245,0,0,1-.645-2.37,4.245,4.245,0,0,1,.645-2.37,4.9,4.9,0,0,1,1.86-1.635,9.873,9.873,0,0,1,2.955-.945,25.892,25.892,0,0,1,7.86,0,9.873,9.873,0,0,1,2.955.945,4.9,4.9,0,0,1,1.86,1.635,4.245,4.245,0,0,1,.645,2.37,4.245,4.245,0,0,1-.645,2.37,4.9,4.9,0,0,1-1.86,1.635,9.873,9.873,0,0,1-2.955.945A23.273,23.273,0,0,1,40.95-12.42Zm0-7.44a11.541,11.541,0,0,0-4.29.57,1.788,1.788,0,0,0-1.29,1.62,1.788,1.788,0,0,0,1.29,1.62,11.541,11.541,0,0,0,4.29.57,11.541,11.541,0,0,0,4.29-.57,1.788,1.788,0,0,0,1.29-1.62,1.788,1.788,0,0,0-1.29-1.62A11.541,11.541,0,0,0,40.95-19.86ZM29.58-6.96a1.127,1.127,0,0,1-1.005-.465A1.958,1.958,0,0,1,28.26-8.55a1.905,1.905,0,0,1,.315-1.1,1.127,1.127,0,0,1,1.005-.465h5.49v-4.35h3.66v4.35h4.44v-4.35h3.66v4.35h5.49a1.127,1.127,0,0,1,1,.465,1.905,1.905,0,0,1,.315,1.1,1.958,1.958,0,0,1-.315,1.125,1.127,1.127,0,0,1-1,.465ZM31.5-.27a4.245,4.245,0,0,1,.645-2.37A4.873,4.873,0,0,1,34.02-4.275a10.071,10.071,0,0,1,2.97-.945,26.187,26.187,0,0,1,7.9,0,10.078,10.078,0,0,1,2.985.945A4.873,4.873,0,0,1,49.755-2.64,4.245,4.245,0,0,1,50.4-.27a4.245,4.245,0,0,1-.645,2.37A4.873,4.873,0,0,1,47.88,3.735a10.078,10.078,0,0,1-2.985.945,23.543,23.543,0,0,1-3.945.3,23.476,23.476,0,0,1-3.96-.3,10.071,10.071,0,0,1-2.97-.945A4.873,4.873,0,0,1,32.145,2.1,4.245,4.245,0,0,1,31.5-.27Zm15.09,0q0-1.05-1.305-1.635A11.5,11.5,0,0,0,40.95-2.49a11.5,11.5,0,0,0-4.335.585Q35.31-1.32,35.31-.27t1.305,1.635a11.5,11.5,0,0,0,4.335.585,11.5,11.5,0,0,0,4.335-.585Q46.59.78,46.59-.27ZM60.63-18.06h5.58v-2.67a1.342,1.342,0,0,1,.585-1.2,2.3,2.3,0,0,1,1.305-.39,2.3,2.3,0,0,1,1.305.39,1.342,1.342,0,0,1,.585,1.2v9.18a2.688,2.688,0,0,1-.555,1.95,2.854,2.854,0,0,1-1.995.54H59.4A2.854,2.854,0,0,1,57.4-9.6a2.688,2.688,0,0,1-.555-1.95v-9.18a1.342,1.342,0,0,1,.585-1.2,2.3,2.3,0,0,1,1.305-.39,2.3,2.3,0,0,1,1.305.39,1.342,1.342,0,0,1,.585,1.2Zm4.89,5.91a.61.61,0,0,0,.69-.69v-2.13H60.63v2.13a.61.61,0,0,0,.69.69ZM78.72-9.9a1.372,1.372,0,0,1-.585,1.23,2.3,2.3,0,0,1-1.3.39,2.351,2.351,0,0,1-1.335-.39A1.372,1.372,0,0,1,74.91-9.9v-4.17H68.28v-3.24h6.63v-4.56a1.372,1.372,0,0,1,.585-1.23,2.351,2.351,0,0,1,1.335-.39,2.3,2.3,0,0,1,1.3.39,1.372,1.372,0,0,1,.585,1.23Zm0,11.73a2.688,2.688,0,0,1-.555,1.95,2.854,2.854,0,0,1-2,.54H63.09a2.854,2.854,0,0,1-1.995-.54,2.688,2.688,0,0,1-.555-1.95V-5.61a1.312,1.312,0,0,1,.585-1.17A2.252,2.252,0,0,1,62.4-7.17a2.3,2.3,0,0,1,1.305.39,1.312,1.312,0,0,1,.585,1.17v1.86H74.97V-5.61a1.312,1.312,0,0,1,.585-1.17,2.252,2.252,0,0,1,1.275-.39,2.3,2.3,0,0,1,1.3.39,1.312,1.312,0,0,1,.585,1.17Zm-4.44-.6a.61.61,0,0,0,.69-.69V-.72H64.29V.54a.61.61,0,0,0,.69.69ZM90.66-16.35a6.843,6.843,0,0,1,.465-2.55,5.4,5.4,0,0,1,1.38-2.01,6.381,6.381,0,0,1,2.25-1.305,9.333,9.333,0,0,1,3.075-.465,9.333,9.333,0,0,1,3.075.465,6.381,6.381,0,0,1,2.25,1.305,5.4,5.4,0,0,1,1.38,2.01A6.843,6.843,0,0,1,105-16.35a6.843,6.843,0,0,1-.465,2.55,5.4,5.4,0,0,1-1.38,2.01,6.381,6.381,0,0,1-2.25,1.305,9.333,9.333,0,0,1-3.075.465,9.333,9.333,0,0,1-3.075-.465,6.381,6.381,0,0,1-2.25-1.305,5.4,5.4,0,0,1-1.38-2.01A6.843,6.843,0,0,1,90.66-16.35Zm10.68,0a3.912,3.912,0,0,0-.195-1.245,2.7,2.7,0,0,0-.63-1.035,3,3,0,0,0-1.1-.705,4.417,4.417,0,0,0-1.59-.255,4.417,4.417,0,0,0-1.59.255,3,3,0,0,0-1.1.705,2.7,2.7,0,0,0-.63,1.035,3.912,3.912,0,0,0-.195,1.245,3.912,3.912,0,0,0,.195,1.245,2.7,2.7,0,0,0,.63,1.035,3,3,0,0,0,1.1.705,4.417,4.417,0,0,0,1.59.255,4.417,4.417,0,0,0,1.59-.255,3,3,0,0,0,1.1-.705,2.7,2.7,0,0,0,.63-1.035A3.912,3.912,0,0,0,101.34-16.35ZM114.87-18a1.184,1.184,0,0,1,1.05.48,2.015,2.015,0,0,1,.33,1.17,2.087,2.087,0,0,1-.33,1.185,1.17,1.17,0,0,1-1.05.5h-2.82v3.87a1.372,1.372,0,0,1-.585,1.23,2.351,2.351,0,0,1-1.335.39,2.351,2.351,0,0,1-1.335-.39,1.372,1.372,0,0,1-.585-1.23V-21.87a1.372,1.372,0,0,1,.585-1.23,2.351,2.351,0,0,1,1.335-.39,2.351,2.351,0,0,1,1.335.39,1.372,1.372,0,0,1,.585,1.23V-18ZM107.61-3.24a.61.61,0,0,0,.69-.69v-.42a.61.61,0,0,0-.69-.69H95.55a1.058,1.058,0,0,1-.96-.465,1.921,1.921,0,0,1-.3-1.065,1.848,1.848,0,0,1,.3-1.05,1.07,1.07,0,0,1,.96-.45H109.5a2.854,2.854,0,0,1,2,.54,2.688,2.688,0,0,1,.555,1.95v2.76A2.688,2.688,0,0,1,111.5-.87a2.854,2.854,0,0,1-2,.54H98.79a.61.61,0,0,0-.69.69V.78a.61.61,0,0,0,.69.69h12.6a1.058,1.058,0,0,1,.96.465A1.921,1.921,0,0,1,112.65,3a1.848,1.848,0,0,1-.3,1.05,1.07,1.07,0,0,1-.96.45H96.9a2.854,2.854,0,0,1-2-.54,2.688,2.688,0,0,1-.555-1.95V-.75A2.688,2.688,0,0,1,94.9-2.7a2.854,2.854,0,0,1,2-.54Zm10.35-9.6q0-4.47,1.8-6.78a6.423,6.423,0,0,1,5.4-2.31,6.423,6.423,0,0,1,5.4,2.31q1.8,2.31,1.8,6.78t-1.8,6.78a6.423,6.423,0,0,1-5.4,2.31,6.423,6.423,0,0,1-5.4-2.31Q117.96-8.37,117.96-12.84Zm10.71,0a9.363,9.363,0,0,0-.78-4.305,2.831,2.831,0,0,0-2.73-1.455,2.831,2.831,0,0,0-2.73,1.455,9.363,9.363,0,0,0-.78,4.305,9.363,9.363,0,0,0,.78,4.305,2.831,2.831,0,0,0,2.73,1.455,2.831,2.831,0,0,0,2.73-1.455A9.363,9.363,0,0,0,128.67-12.84Zm13.5-1.8a1.184,1.184,0,0,1,1.05.48,2.015,2.015,0,0,1,.33,1.17,2.087,2.087,0,0,1-.33,1.185,1.17,1.17,0,0,1-1.05.495h-2.82V1.11a1.372,1.372,0,0,1-.585,1.23,2.48,2.48,0,0,1-2.67,0,1.372,1.372,0,0,1-.585-1.23V-21.87a1.372,1.372,0,0,1,.585-1.23,2.351,2.351,0,0,1,1.335-.39,2.351,2.351,0,0,1,1.335.39,1.372,1.372,0,0,1,.585,1.23v7.23Zm8.58,6.9a2.854,2.854,0,0,1-1.995-.54,2.688,2.688,0,0,1-.555-1.95V-20.61a1.368,1.368,0,0,1,.6-1.215,2.31,2.31,0,0,1,1.32-.4,2.31,2.31,0,0,1,1.32.4,1.368,1.368,0,0,1,.6,1.215v2.91h11.22v-2.91a1.368,1.368,0,0,1,.6-1.215,2.31,2.31,0,0,1,1.32-.4,2.31,2.31,0,0,1,1.32.4,1.368,1.368,0,0,1,.6,1.215v10.38a2.688,2.688,0,0,1-.555,1.95,2.854,2.854,0,0,1-1.995.54Zm11.82-3.21a.61.61,0,0,0,.69-.69v-2.85H152.04v2.85a.61.61,0,0,0,.69.69ZM146.31.27a1.152,1.152,0,0,1-1.02-.48,1.963,1.963,0,0,1-.33-1.14,1.963,1.963,0,0,1,.33-1.14,1.152,1.152,0,0,1,1.02-.48h9.42v-6.6h3.84v6.6h9.42a1.152,1.152,0,0,1,1.02.48,1.962,1.962,0,0,1,.33,1.14,1.962,1.962,0,0,1-.33,1.14,1.152,1.152,0,0,1-1.02.48Zm28.74-18.45a1.152,1.152,0,0,1-1.02-.48,1.962,1.962,0,0,1-.33-1.14,2.015,2.015,0,0,1,.33-1.17,1.152,1.152,0,0,1,1.02-.48h9.03a2.854,2.854,0,0,1,1.995.54,2.688,2.688,0,0,1,.555,1.95v3.33a15.76,15.76,0,0,1-.15,2.28,7.426,7.426,0,0,1-.555,1.935A7.692,7.692,0,0,1,184.8-9.63a13.889,13.889,0,0,1-1.89,1.83q-1.17.96-2.835,2.07T176.13-3.24a1.413,1.413,0,0,1-1.305.135A2.088,2.088,0,0,1,173.79-3.9a2.218,2.218,0,0,1-.36-1.26,1.292,1.292,0,0,1,.66-1.14q2.04-1.23,3.5-2.175t2.43-1.695a10.968,10.968,0,0,0,1.53-1.38,5.007,5.007,0,0,0,.84-1.275,4.484,4.484,0,0,0,.36-1.335,14.884,14.884,0,0,0,.075-1.59v-1.74a.61.61,0,0,0-.69-.69ZM195.24,1.11a1.372,1.372,0,0,1-.585,1.23,2.4,2.4,0,0,1-1.365.39,2.351,2.351,0,0,1-1.335-.39,1.372,1.372,0,0,1-.585-1.23V-21.87a1.372,1.372,0,0,1,.585-1.23,2.351,2.351,0,0,1,1.335-.39,2.4,2.4,0,0,1,1.365.39,1.372,1.372,0,0,1,.585,1.23Z" transform="translate(138 150)" fill="#777"/>
    <path id="Icon_awesome-search" data-name="Icon awesome-search" d="M35.508,31.127l-7.01-7.01a1.686,1.686,0,0,0-1.2-.492H26.156a14.618,14.618,0,1,0-2.531,2.531V27.3a1.686,1.686,0,0,0,.492,1.2l7.01,7.01a1.681,1.681,0,0,0,2.384,0l1.99-1.99a1.7,1.7,0,0,0,.007-2.391Zm-20.883-7.5a9,9,0,1,1,9-9A8.995,8.995,0,0,1,14.625,23.625Z" transform="translate(92 122.998)" fill="#777"/>
  </g>
</svg>
